<svg width="324" height="20" viewBox="0 0 324 20" fill="none" xmlns="http://www.w3.org/2000/svg">
    <g clip-path="url(#clip0_156_19609)">
    <path d="M35.3202 17.0601V5.60722H31.6312V2.81494H42.369V5.60722H38.6914V17.0601H35.3202Z" fill="white"/>
    <path d="M44.1284 17.0601V2.81494H50.1443C52.1307 2.81494 53.6176 3.17817 54.5824 3.90461C55.5473 4.63106 56.0353 5.75478 56.0353 7.25308C56.0353 8.2633 55.7856 9.1146 55.2975 9.79565C54.8095 10.4767 54.083 10.9875 53.1295 11.328L56.3305 17.0601H52.5166L49.7584 12.0204H47.4882V17.0601H44.1171H44.1284ZM47.4996 5.43696V9.39837H49.94C50.9048 9.39837 51.5972 9.25081 52.0058 8.94434C52.4144 8.63787 52.6301 8.13844 52.6301 7.44604C52.6301 6.70824 52.4372 6.19746 52.0512 5.89099C51.6653 5.59587 50.9616 5.43696 49.94 5.43696H47.4996Z" fill="white"/>
    <path d="M61.5744 2.81494H58.226V17.0601H61.5744V2.81494Z" fill="white"/>
    <path d="M74.6619 17.0602L74.537 15.6867C74.0262 16.2543 73.4133 16.6743 72.6982 16.9694C71.9831 17.2531 71.1886 17.4007 70.3032 17.4007C68.4076 17.4007 66.898 16.7537 65.7743 15.4484C64.6505 14.143 64.0944 12.3837 64.0944 10.1703C64.0944 7.77528 64.7187 5.90241 65.9672 4.52897C67.2158 3.15553 68.9184 2.47449 71.0864 2.47449C72.4485 2.47449 73.6517 2.76961 74.6959 3.3712C75.7516 3.96143 76.5802 4.82409 77.1931 5.93646L74.4462 7.42341C74.0603 6.76507 73.6176 6.26563 73.0955 5.95916C72.5734 5.64134 71.9491 5.48243 71.2113 5.48243C70.0308 5.48243 69.1114 5.87971 68.4644 6.66291C67.8174 7.44611 67.4996 8.54713 67.4996 9.96597C67.4996 11.3848 67.8174 12.4972 68.4417 13.2804C69.0773 14.0636 69.9627 14.4495 71.1205 14.4495C72.0285 14.4495 72.755 14.2225 73.3225 13.7571C73.8787 13.3031 74.1965 12.6788 74.276 11.8842H71.1886V9.11467H77.2612V17.0602H74.6619Z" fill="white"/>
    <path d="M93.0614 9.95463C93.0614 12.2248 92.4371 14.0295 91.1772 15.3803C89.9172 16.731 88.2487 17.4007 86.1374 17.4007C84.0262 17.4007 82.369 16.7197 81.1091 15.3689C79.8491 14.0182 79.2249 12.2134 79.2249 9.95463C79.2249 8.7174 79.4178 7.61637 79.8037 6.64021C80.1897 5.66405 80.7572 4.83544 81.5291 4.14305C82.142 3.58686 82.8344 3.17824 83.6062 2.90582C84.3781 2.6334 85.2294 2.49719 86.1488 2.49719C87.0682 2.49719 87.9309 2.6334 88.7027 2.90582C89.4746 3.17824 90.1556 3.59821 90.7685 4.14305C91.529 4.83544 92.0966 5.66405 92.4825 6.64021C92.8684 7.61637 93.0614 8.7174 93.0614 9.95463ZM86.1488 14.4155C87.2385 14.4155 88.0784 14.0182 88.6914 13.235C89.3043 12.4518 89.5994 11.3508 89.5994 9.95463C89.5994 8.55849 89.293 7.44611 88.68 6.66291C88.0671 5.86836 87.2271 5.47109 86.1488 5.47109C85.0705 5.47109 84.2305 5.86836 83.6176 6.66291C83.0046 7.45746 82.6982 8.55849 82.6982 9.94328C82.6982 11.3281 83.0046 12.4291 83.6176 13.2123C84.2305 14.0068 85.0705 14.4041 86.1488 14.4041" fill="white"/>
    <path d="M95.0931 17.0601V2.81494H98.6459L104.094 12.7014L103.811 2.81494H107.034V17.0601H103.504L98.033 7.29848L98.3168 17.0601H95.0931Z" fill="white"/>
    <path d="M13.3111 4.25653L20.0875 15.1078C18.0557 14.5062 15.7175 14.0522 13.3111 14.0522C10.9048 14.0522 8.56652 14.5062 6.53473 15.1078L13.3111 4.25653ZM13.3111 0L0.813965 20C0.813965 20 6.82985 16.2997 13.3111 16.2997C19.7924 16.2997 25.8083 20 25.8083 20L13.3111 0Z" fill="white"/>
    <path d="M113.663 17.0602L119.395 2.47449H120.95L126.546 17.0602H125.127L123.447 12.4858H116.807L115.082 17.0602H113.663ZM117.272 11.3054H122.982L120.122 3.64361L117.261 11.3054H117.272Z" fill="white"/>
    <path d="M129.089 12.7014C129.145 13.3484 129.293 13.9046 129.52 14.3473C129.758 14.8013 130.065 15.1645 130.428 15.4483C130.803 15.7321 131.234 15.9364 131.711 16.0613C132.199 16.1861 132.721 16.2542 133.266 16.2542C133.913 16.2542 134.48 16.1748 134.946 16.0159C135.422 15.8569 135.808 15.6299 136.103 15.3575C136.399 15.0851 136.626 14.7559 136.762 14.3927C136.909 14.0295 136.977 13.6435 136.977 13.2349C136.977 12.6674 136.853 12.2134 136.591 11.8615C136.33 11.5096 136.001 11.2258 135.593 10.9988C135.184 10.7718 134.707 10.6016 134.174 10.4653C133.64 10.3291 133.095 10.2043 132.528 10.0681C131.972 9.94321 131.416 9.7843 130.882 9.61404C130.349 9.44378 129.872 9.20541 129.463 8.91029C129.055 8.61517 128.714 8.22925 128.464 7.76387C128.203 7.29849 128.078 6.70825 128.078 5.99315C128.078 5.49372 128.181 5.00564 128.396 4.54026C128.601 4.06353 128.918 3.64355 129.327 3.28033C129.736 2.9171 130.258 2.62198 130.882 2.40632C131.506 2.19066 132.221 2.07715 133.027 2.07715C133.833 2.07715 134.571 2.19066 135.184 2.41767C135.797 2.64469 136.308 2.96251 136.716 3.35978C137.125 3.75706 137.42 4.22244 137.624 4.74457C137.829 5.26671 137.931 5.83424 137.931 6.42448H136.614C136.614 5.86829 136.512 5.39156 136.319 4.98294C136.126 4.57431 135.854 4.24514 135.513 3.99542C135.173 3.73436 134.787 3.55274 134.355 3.42789C133.924 3.30303 133.481 3.24627 133.016 3.24627C132.312 3.24627 131.722 3.34843 131.245 3.54139C130.769 3.73436 130.383 3.99542 130.099 4.30189C129.815 4.60836 129.622 4.96024 129.509 5.33481C129.395 5.70938 129.384 6.09531 129.452 6.46988C129.531 6.94661 129.724 7.32119 130.019 7.60496C130.315 7.88873 130.678 8.12709 131.109 8.3087C131.54 8.49032 132.017 8.63788 132.539 8.75138C133.061 8.86489 133.595 8.98975 134.128 9.11461C134.673 9.23946 135.195 9.39837 135.695 9.56864C136.206 9.7389 136.648 9.97726 137.046 10.2724C137.431 10.5675 137.749 10.9534 137.988 11.4188C138.226 11.8842 138.34 12.4744 138.34 13.1668C138.34 14.5176 137.874 15.5618 136.943 16.311C136.013 17.0488 134.696 17.4233 133.016 17.4233C132.256 17.4233 131.563 17.3212 130.905 17.1282C130.258 16.9353 129.69 16.6401 129.225 16.2315C128.748 15.8342 128.385 15.3462 128.124 14.7559C127.863 14.1657 127.727 13.4733 127.727 12.6787H129.066L129.089 12.7014Z" fill="white"/>
    <path d="M141.461 12.7014C141.518 13.3484 141.665 13.9046 141.892 14.3473C142.131 14.8013 142.437 15.1645 142.8 15.4483C143.175 15.7321 143.606 15.9364 144.083 16.0613C144.571 16.1861 145.093 16.2542 145.638 16.2542C146.285 16.2542 146.853 16.1748 147.318 16.0159C147.795 15.8569 148.181 15.6299 148.476 15.3575C148.771 15.0851 148.998 14.7559 149.134 14.3927C149.282 14.0295 149.35 13.6435 149.35 13.2349C149.35 12.6674 149.225 12.2134 148.964 11.8615C148.703 11.5096 148.374 11.2258 147.965 10.9988C147.556 10.7718 147.08 10.6016 146.546 10.4653C146.013 10.3291 145.468 10.2043 144.9 10.0681C144.344 9.94321 143.788 9.7843 143.254 9.61404C142.721 9.44378 142.244 9.20541 141.836 8.91029C141.427 8.61517 141.086 8.22925 140.837 7.76387C140.576 7.29849 140.451 6.70825 140.451 5.99315C140.451 5.49372 140.553 5.00564 140.769 4.54026C140.973 4.06353 141.291 3.64355 141.699 3.28033C142.108 2.9171 142.63 2.62198 143.254 2.40632C143.879 2.19066 144.594 2.07715 145.4 2.07715C146.206 2.07715 146.943 2.19066 147.556 2.41767C148.169 2.64469 148.68 2.96251 149.089 3.35978C149.497 3.75706 149.792 4.22244 149.997 4.74457C150.201 5.26671 150.303 5.83424 150.303 6.42448H148.986C148.986 5.86829 148.884 5.39156 148.691 4.98294C148.498 4.57431 148.226 4.24514 147.885 3.99542C147.545 3.73436 147.159 3.55274 146.728 3.42789C146.296 3.30303 145.854 3.24627 145.388 3.24627C144.685 3.24627 144.094 3.34843 143.618 3.54139C143.141 3.73436 142.755 3.99542 142.471 4.30189C142.187 4.60836 141.994 4.96024 141.881 5.33481C141.767 5.70938 141.756 6.09531 141.824 6.46988C141.904 6.94661 142.097 7.32119 142.392 7.60496C142.687 7.88873 143.05 8.12709 143.481 8.3087C143.913 8.49032 144.389 8.63788 144.912 8.75138C145.434 8.86489 145.967 8.98975 146.501 9.11461C147.046 9.23946 147.568 9.39837 148.067 9.56864C148.578 9.7389 149.021 9.97726 149.418 10.2724C149.804 10.5675 150.122 10.9534 150.36 11.4188C150.598 11.8842 150.712 12.4744 150.712 13.1668C150.712 14.5176 150.246 15.5618 149.316 16.311C148.385 17.0488 147.068 17.4233 145.388 17.4233C144.628 17.4233 143.935 17.3212 143.277 17.1282C142.63 16.9353 142.063 16.6401 141.597 16.2315C141.12 15.8342 140.757 15.3462 140.496 14.7559C140.235 14.1657 140.099 13.4733 140.099 12.6787H141.438L141.461 12.7014Z" fill="white"/>
    <path d="M153.277 17.0602V2.47449H162.982V3.64361H154.65V8.91036H162.176V10.0908H154.65V15.8797H163.186V17.0602H153.277Z" fill="white"/>
    <path d="M164.344 2.47449H175.286V3.64361H170.53V17.0602H169.111V3.64361H164.344V2.47449Z" fill="white"/>
    <path d="M182.834 17.0602V2.47449H184.934L189.724 15.3349H189.758L194.458 2.47449H196.546V17.0602H195.173V4.05224H195.127L190.349 17.0602H189.055L184.253 4.05224H184.208V17.0602H182.834Z" fill="white"/>
    <path d="M198.43 17.0602L204.162 2.47449H205.717L211.313 17.0602H209.895L208.215 12.4858H201.574L199.849 17.0602H198.43ZM202.04 11.3054H207.749L204.889 3.64361L202.028 11.3054H202.04Z" fill="white"/>
    <path d="M214.662 4.33601H214.616V17.0602H213.243V2.47449H214.798L223.232 15.21H223.266V2.47449H224.65V17.0602H223.05L214.662 4.33601Z" fill="white"/>
    <path d="M226.569 17.0602L232.301 2.47449H233.856L239.452 17.0602H238.033L236.353 12.4858H229.713L227.988 17.0602H226.569ZM230.178 11.3054H235.888L233.027 3.64361L230.167 11.3054H230.178Z" fill="white"/>
    <path d="M247.624 10.6924V9.52323H253.867V17.0601H252.687V14.563C252.426 14.9943 252.142 15.3916 251.801 15.7434C251.472 16.1067 251.086 16.4018 250.655 16.6515C250.224 16.9012 249.724 17.0942 249.157 17.2304C248.589 17.3666 247.942 17.4347 247.227 17.4347C246.308 17.4347 245.456 17.2758 244.673 16.9466C243.89 16.6174 243.22 16.1407 242.653 15.4937C242.085 14.8467 241.642 14.0408 241.325 13.076C241.007 12.0999 240.848 10.9648 240.848 9.67079C240.848 8.60382 240.984 7.60496 241.257 6.68555C241.529 5.76614 241.938 4.96024 242.505 4.27919C243.061 3.59815 243.765 3.06466 244.616 2.66739C245.456 2.28146 246.455 2.07715 247.602 2.07715C248.373 2.07715 249.089 2.16795 249.758 2.36092C250.428 2.55388 251.03 2.83765 251.563 3.22357C252.096 3.6095 252.551 4.08623 252.914 4.66512C253.277 5.244 253.538 5.9137 253.708 6.6969H252.289C252.165 6.15206 251.96 5.67533 251.676 5.23265C251.381 4.80133 251.041 4.4381 250.632 4.15433C250.224 3.85921 249.77 3.64355 249.27 3.48464C248.771 3.32573 248.249 3.24627 247.715 3.24627C246.75 3.24627 245.933 3.41654 245.241 3.75706C244.548 4.09758 243.981 4.57431 243.538 5.18725C243.095 5.80019 242.766 6.53799 242.551 7.40064C242.346 8.2633 242.233 9.20541 242.233 10.227C242.233 11.0329 242.346 11.8047 242.585 12.5425C242.823 13.269 243.163 13.916 243.617 14.4722C244.072 15.0283 244.628 15.4597 245.275 15.7888C245.933 16.118 246.671 16.2769 247.511 16.2769C247.897 16.2769 248.305 16.2315 248.725 16.1407C249.145 16.0499 249.554 15.9023 249.94 15.7094C250.326 15.5051 250.7 15.244 251.03 14.9148C251.37 14.5857 251.654 14.1884 251.904 13.723C252.131 13.269 252.289 12.7809 252.38 12.2815C252.471 11.782 252.516 11.2599 252.528 10.7037H247.602L247.624 10.6924Z" fill="white"/>
    <path d="M257.182 17.0602V2.47449H266.898V3.64361H258.566V8.91036H266.081V10.0908H258.566V15.8797H267.091V17.0602H257.182Z" fill="white"/>
    <path d="M269.509 17.0602V2.47449H271.608L276.398 15.3349H276.433L281.132 2.47449H283.22V17.0602H281.847V4.05224H281.801L277.023 17.0602H275.729L270.927 4.05224H270.882V17.0602H269.509Z" fill="white"/>
    <path d="M286.444 17.0602V2.47449H296.149V3.64361H287.817V8.91036H295.343V10.0908H287.817V15.8797H296.353V17.0602H286.444Z" fill="white"/>
    <path d="M300.201 4.33601H300.156V17.0602H298.782V2.47449H300.337L308.771 15.21H308.816V2.47449H310.19V17.0602H308.589L300.201 4.33601Z" fill="white"/>
    <path d="M312.142 2.47449H323.186V3.64361H318.385V17.0602H316.955V3.64361H312.142V2.47449Z" fill="white"/>
    </g>
    <defs>
    <clipPath id="clip0_156_19609">
        <rect width="322.372" height="20" fill="white" transform="translate(0.813965)"/>
    </clipPath>
    </defs>
</svg>