<svg xmlns="http://www.w3.org/2000/svg" width="217" height="103" viewBox="0 0 217 103" fill="none">
  <g clip-path="url(#clip0_94_24041)">
    <path d="M72.3945 36.5265C72.8186 35.7916 73.1051 34.2874 73.1051 32.7257V22.6439C73.1051 21.0822 72.8186 19.578 72.3945 18.8431V18.7053H77.4836V18.8431C77.0595 19.578 76.773 21.0822 76.773 22.6439V34.0233H78.4121C80.7045 34.0233 82.5269 33.7018 83.9253 32.9898H84.0514V36.6643H72.4059V36.5265H72.3945Z" fill="white"/>
    <path d="M85.4612 35.8949V31.9563H85.5644C87.2722 33.518 88.7508 34.1725 90.6535 34.1725C92.5562 34.1725 93.5534 33.4606 93.5534 32.0597C93.5534 30.5325 92.2582 30.0847 89.9429 29.1546C87.4098 28.1785 85.0944 27.1451 85.0944 23.8955C85.0944 20.4851 87.5702 18.4067 91.6278 18.4067C93.1064 18.4067 94.5506 18.6708 95.7083 19.1761V22.8161H95.6052C94.2641 21.7023 92.9918 21.1856 91.5246 21.1856C89.7595 21.1856 88.7623 21.9204 88.7623 23.3213C88.7623 24.8485 90.0575 25.2964 92.3728 26.2265C94.906 27.2025 97.2213 28.2359 97.2213 31.4856C97.2213 34.7352 94.6653 36.9513 90.5275 36.9513C88.7623 36.9513 86.894 36.5609 85.4612 35.8949Z" fill="white"/>
    <path d="M99.3074 36.5265C99.7315 35.7916 100.018 34.2874 100.018 32.7257V22.6439C100.018 21.0822 99.7315 19.578 99.3074 18.8431V18.7053H110.724V22.1157H110.643C109.612 21.5875 107.95 21.3463 105.772 21.3463H103.686V26.0198H105.715C107.64 26.0198 108.672 25.882 109.612 25.6753H109.715V29.1661H109.612C108.66 28.9594 107.64 28.8446 105.715 28.8446H103.686V34.0233H105.715C108.007 34.0233 109.875 33.7018 111.228 33.0243H111.366V36.6643H99.3189V36.5265H99.3074Z" fill="white"/>
    <path d="M113.417 27.7422C113.417 22.0353 117.234 18.4182 123.137 18.4182C124.925 18.4182 126.748 18.7627 127.882 19.2909V22.9654H127.779C126.622 21.909 124.937 21.2774 123.091 21.2774C119.378 21.2774 117.188 23.574 117.188 27.6159C117.188 31.6578 119.561 34.1381 123.676 34.1381C124.226 34.1381 124.788 34.0806 125.315 33.9773V29.545C123.676 29.545 122.759 29.6483 121.945 29.832H121.807V26.4217H121.945C122.793 26.5824 123.767 26.7087 125.498 26.7087H129.132V26.8121C128.925 27.2829 128.845 28.2934 128.845 29.3727V33.6213C128.845 34.7352 128.925 35.493 129.052 35.9753V36.0786C127.607 36.5494 125.338 36.9513 123.699 36.9513C117.452 36.9513 113.417 33.3113 113.417 27.7307V27.7422Z" fill="white"/>
    <path d="M136.399 36.5265C136.823 35.7916 137.109 34.2874 137.109 32.7257V22.6439C137.109 21.0822 136.823 19.578 136.399 18.8431V18.7053H141.488V18.8431C141.064 19.578 140.777 21.0822 140.777 22.6439V34.0233H142.416C144.709 34.0233 146.531 33.7018 147.93 32.9898H148.067V36.6643H136.422V36.5265H136.399Z" fill="white"/>
    <path d="M154.325 36.6643H149.763V36.5265C150.107 35.918 150.291 34.919 150.291 33.4147V28.3394C150.291 25.9854 150.004 25.3079 149.5 25.0897V24.9634L153.638 24.0908H153.798V33.4147C153.798 34.919 153.981 35.918 154.325 36.5265V36.6643ZM149.901 20.7722C149.901 19.6125 150.852 18.6594 152.01 18.6594C153.168 18.6594 154.119 19.6125 154.119 20.7722C154.119 21.932 153.168 22.8851 152.01 22.8851C150.852 22.8851 149.901 21.932 149.901 20.7722Z" fill="white"/>
    <path d="M156.985 38.6969V28.7643C156.985 26.4103 156.698 25.7329 156.194 25.5147V25.3769L160.171 24.0793H160.332V25.7214C161.306 24.642 162.544 24.0793 164.08 24.0793C167.61 24.0793 170.086 26.6974 170.086 30.4178C170.086 34.1382 167.587 36.94 163.919 36.94C162.601 36.94 161.443 36.6185 160.492 36.0214V38.6854C160.492 40.1896 160.675 41.1886 161.019 41.7972V41.9235H156.457V41.7972C156.801 41.1886 156.985 40.1896 156.985 38.6854V38.6969ZM160.492 28.5806V33.1737C161.145 33.8856 162.154 34.253 163.335 34.253C165.18 34.253 166.475 32.7258 166.475 30.5786C166.475 28.4313 165.214 26.8582 163.415 26.8582C162.097 26.8582 161.099 27.4438 160.492 28.5806Z" fill="white"/>
    <path d="M172.493 38.6969V28.7643C172.493 26.4103 172.206 25.7329 171.702 25.5147V25.3769L175.679 24.0793H175.84V25.7214C176.814 24.642 178.052 24.0793 179.576 24.0793C183.107 24.0793 185.582 26.6974 185.582 30.4178C185.582 34.1382 183.084 36.94 179.416 36.94C178.098 36.94 176.94 36.6185 175.989 36.0214V38.6854C175.989 40.1896 176.172 41.1886 176.516 41.7972V41.9235H171.954V41.7972C172.298 41.1886 172.481 40.1896 172.481 38.6854L172.493 38.6969ZM175.989 28.5806V33.1737C176.654 33.8856 177.651 34.253 178.831 34.253C180.677 34.253 181.972 32.7258 181.972 30.5786C181.972 28.4313 180.711 26.8582 178.912 26.8582C177.593 26.8582 176.596 27.4438 175.989 28.5806Z" fill="white"/>
    <path d="M187.176 30.613C187.176 26.7089 189.709 24.0908 193.526 24.0908C197.033 24.0908 199.325 26.284 199.325 29.6944C199.325 30.2456 199.245 30.8312 199.142 31.4627H190.844C191.13 33.4148 192.528 34.5516 194.66 34.5516C195.921 34.5516 197.377 34.0463 198.477 32.9095H198.615V35.4932C197.4 36.4462 195.795 36.94 194.133 36.94C189.972 36.94 187.176 34.3793 187.176 30.6015V30.613ZM190.832 29.0628H195.703C195.681 27.3519 194.913 26.5022 193.457 26.5022C191.898 26.5022 191.027 27.3519 190.821 29.0628H190.832Z" fill="white"/>
    <path d="M201.801 33.4148V28.7643C201.801 26.4103 201.515 25.7329 201.01 25.5147V25.3769L204.988 24.0793H205.148V26.1922C206.1 24.9291 207.177 24.2401 208.312 24.2401C208.598 24.2401 208.862 24.2975 209.16 24.3779V27.7079H209.057C208.736 27.5701 208.289 27.5012 207.899 27.5012C206.764 27.5012 205.996 28.0524 205.32 28.9825V33.4148C205.32 34.919 205.504 35.918 205.847 36.5266V36.6644H201.285V36.5266C201.629 35.918 201.813 34.919 201.813 33.4148H201.801Z" fill="white"/>
    <path d="M79.3405 52.6139C81.2432 52.6139 82.2633 52.4876 83.2147 52.2695H83.3522V55.7602H83.2147C82.2633 55.5535 81.2432 55.4387 79.3405 55.4387H76.7615V59.1361C76.7615 60.6978 77.0481 62.202 77.4722 62.9369V63.0747H72.383V62.9369C72.8071 62.202 73.0936 60.6978 73.0936 59.1361V49.0543C73.0936 47.4926 72.8071 45.9884 72.383 45.2535V45.1157H83.9482V48.6524H83.8451C82.8135 48.0438 81.289 47.7567 79.0998 47.7567H76.75V52.6139H79.329H79.3405Z" fill="white"/>
    <path d="M86.0916 58.6653V54.1756C86.0916 52.6713 85.9083 51.6724 85.5644 51.0638V50.926L89.4386 50.6619H89.599V58.5275C89.599 59.8251 90.1263 60.3992 91.261 60.3992C92.3156 60.3992 93.2096 59.9284 94.2412 59.1017V54.1641C94.2412 52.6599 94.0578 51.6609 93.7139 51.0523V50.9145L97.5881 50.6504H97.7486V59.7103C97.7486 60.9504 97.9893 62.1101 98.4134 62.8221V62.9254L94.9289 63.1895C94.6653 62.868 94.5048 62.3398 94.4017 61.7427C93.0835 62.6384 91.7883 63.224 90.2065 63.224C87.4671 63.224 86.0916 61.6968 86.0916 58.6538V58.6653Z" fill="white"/>
    <path d="M100.981 59.825V55.1744C100.981 52.8205 100.694 52.143 100.19 51.9248V51.787L104.167 50.4895H104.328V52.0971C105.669 51.2014 107.021 50.6158 108.649 50.6158C111.469 50.6158 112.89 52.143 112.89 55.1859V59.802C112.89 61.3062 113.073 62.3052 113.417 62.9138V63.0516H108.855V62.9138C109.199 62.3052 109.383 61.3062 109.383 59.802V55.3122C109.383 54.0147 108.798 53.4406 107.595 53.4406C106.483 53.4406 105.543 53.8884 104.488 54.7381V59.8135C104.488 61.3177 104.672 62.3167 105.016 62.9253V63.0631H100.454V62.9253C100.797 62.3167 100.981 61.3177 100.981 59.8135V59.825Z" fill="white"/>
    <path d="M115.194 57.0232C115.194 53.165 117.693 50.501 121.36 50.501C122.679 50.501 123.836 50.8225 124.788 51.4196V48.4915C124.788 46.1376 124.501 45.4601 123.997 45.2419V45.1041L128.135 44.2314H128.295V59.7102C128.295 60.9503 128.536 62.11 128.948 62.822V62.9253L125.464 63.1894C125.2 62.8679 125.017 62.2938 124.937 61.6622C123.962 62.799 122.747 63.3502 121.303 63.3502C117.75 63.3502 115.194 60.6862 115.194 57.0117V57.0232ZM121.807 60.5599C123.183 60.5599 124.203 59.9283 124.788 58.6882V54.2559C124.123 53.5439 123.126 53.1765 121.945 53.1765C120.1 53.1765 118.804 54.7037 118.804 56.851C118.804 58.9982 120.065 60.5714 121.807 60.5714V60.5599Z" fill="white"/>
    <path d="M149.408 59.7217C149.798 60.9045 150.222 61.9379 150.887 62.9369V63.0747H145.373V62.9369C145.958 61.9035 145.924 60.8011 145.58 59.7677L145.075 58.3209H138.622L138.118 59.7677C137.751 60.8011 137.728 61.9035 138.301 62.9369V63.0747H133.43V62.9369C134.06 61.9379 134.484 60.9045 134.874 59.7217L140.009 45.1157H144.285L149.397 59.7217H149.408ZM144.113 55.4387L141.843 48.7902L139.608 55.4387H144.113Z" fill="white"/>
    <path d="M151.781 54.497C151.311 52.5679 150.829 51.4885 150.44 50.9374V50.811H155.185V50.9374C154.921 51.523 154.921 52.6023 155.265 54.2903L156.48 60.2039L158.956 50.7996H161.982L164.458 60.2039L165.615 54.474C165.936 52.9124 165.822 51.5459 165.512 50.9374V50.811H169.73V50.9374C169.306 51.4885 168.882 52.5794 168.412 54.497L166.361 63.0746H161.936L160.114 56.3916L158.291 63.0746H153.81L151.781 54.497Z" fill="white"/>
    <path d="M170.498 59.4345C170.498 56.6557 172.55 55.1859 176.355 55.1859C176.802 55.1859 177.272 55.2433 177.777 55.2893V54.6577C177.777 53.4635 177.066 52.9123 175.645 52.9123C174.143 52.9123 172.688 53.5439 171.828 54.3132H171.667V51.2818C172.642 50.8569 174.143 50.5125 175.782 50.5125C179.313 50.5125 181.296 51.9937 181.296 54.7381V59.7331C181.296 60.9732 181.536 62.133 181.96 62.8449V62.9482L178.636 63.2123C178.396 62.9253 178.235 62.443 178.132 61.8918C177.02 62.7071 175.92 63.2353 174.682 63.2353C172.183 63.2353 170.521 61.7311 170.521 59.4345H170.498ZM175.588 60.5943C176.195 60.5943 176.963 60.2728 177.777 59.6412V57.448C177.387 57.3676 177.009 57.3447 176.596 57.3447C174.877 57.3447 174.04 57.9303 174.04 59.0671C174.04 60.0201 174.625 60.5943 175.599 60.5943H175.588Z" fill="white"/>
    <path d="M184.425 59.825V55.1744C184.425 52.8205 184.138 52.143 183.634 51.9248V51.787L187.611 50.4895H187.772V52.6023C188.723 51.3392 189.801 50.6503 190.935 50.6503C191.222 50.6503 191.485 50.7077 191.783 50.7881V54.118H191.68C191.359 53.9802 190.912 53.9114 190.523 53.9114C189.388 53.9114 188.62 54.4625 187.944 55.3926V59.825C187.944 61.3292 188.127 62.3282 188.471 62.9368V63.0746H183.909V62.9368C184.253 62.3282 184.436 61.3292 184.436 59.825H184.425Z" fill="white"/>
    <path d="M192.643 57.0232C192.643 53.165 195.142 50.501 198.81 50.501C200.128 50.501 201.285 50.8225 202.237 51.4196V48.4915C202.237 46.1376 201.95 45.4601 201.446 45.2419V45.1041L205.584 44.2314H205.744V59.7102C205.744 60.9503 205.985 62.11 206.398 62.822V62.9253L202.913 63.1894C202.649 62.8679 202.466 62.2938 202.386 61.6622C201.412 62.799 200.197 63.3502 198.752 63.3502C195.199 63.3502 192.643 60.6862 192.643 57.0117V57.0232ZM199.257 60.5599C200.632 60.5599 201.652 59.9283 202.237 58.6882V54.2559C201.572 53.5439 200.575 53.1765 199.394 53.1765C197.549 53.1765 196.254 54.7037 196.254 56.851C196.254 58.9982 197.514 60.5714 199.257 60.5714V60.5599Z" fill="white"/>
    <path d="M208.358 62.8679V59.9053H208.518C209.183 60.5139 210.627 61.0995 211.888 61.0995C213.046 61.0995 213.63 60.7091 213.63 59.9398C213.63 59.2278 213.08 58.9408 211.601 58.2977C209.836 57.5628 208.048 56.6327 208.048 54.2099C208.048 51.9133 209.893 50.5125 212.793 50.5125C213.905 50.5125 215.028 50.6732 215.98 50.9603V53.7621H215.842C215.292 53.2568 214.02 52.786 213 52.786C211.98 52.786 211.395 53.1305 211.395 53.785C211.395 54.497 211.945 54.8185 213.447 55.45C215.189 56.1849 217 57.0921 217 59.5149C217 61.9378 215.132 63.3731 211.911 63.3731C210.65 63.3731 209.412 63.1894 208.358 62.8679Z" fill="white"/>
    <path d="M72.9791 83.6746L75.707 80.2872C77.2888 78.3351 77.8504 77.4854 77.8504 76.4519C77.8504 75.2922 77.1398 74.5917 75.9592 74.5917C75.0537 74.5917 74.1826 74.9936 73.4719 75.6826H73.4146V74.3506C74.0794 73.9028 74.9047 73.6501 75.9592 73.6501C77.8504 73.6501 79.1342 74.6606 79.1342 76.383C79.1342 77.761 78.4235 78.6336 76.5552 80.8154L74.8015 82.8593H77.541C78.4923 82.8593 79.1915 82.7674 79.4437 82.6067H79.5124V83.9501H73.0249L72.9676 83.686L72.9791 83.6746Z" fill="white"/>
    <path d="M88.9801 78.8518C88.9801 81.9866 87.3754 84.088 85.0142 84.088C82.653 84.088 81.0598 81.9981 81.0598 78.8748C81.0598 75.7515 82.6645 73.6387 85.0257 73.6387C87.3869 73.6387 88.9801 75.717 88.9801 78.8518ZM82.3665 78.8518C82.3665 81.5962 83.3178 83.1349 85.0372 83.1349C86.7565 83.1349 87.6849 81.6077 87.6849 78.8748C87.6849 76.1419 86.745 74.6032 85.0142 74.6032C83.2835 74.6032 82.3665 76.1075 82.3665 78.8404V78.8518Z" fill="white"/>
    <path d="M90.2638 83.6746L92.9918 80.2872C94.5736 78.3351 95.1352 77.4854 95.1352 76.4519C95.1352 75.2922 94.4246 74.5917 93.244 74.5917C92.3385 74.5917 91.4674 74.9936 90.7567 75.6826H90.6994V74.3506C91.3642 73.9028 92.1895 73.6501 93.244 73.6501C95.1352 73.6501 96.419 74.6606 96.419 76.383C96.419 77.761 95.7083 78.6336 93.84 80.8154L92.0863 82.8593H94.8258C95.7771 82.8593 96.4763 82.7674 96.7285 82.6067H96.7972V83.9501H90.3097L90.2524 83.686L90.2638 83.6746Z" fill="white"/>
    <path d="M110.151 75.6827C109.933 74.7412 109.818 74.3967 109.486 73.834V73.7881H111.366V73.834C111.216 74.1785 111.216 74.7871 111.423 75.7287L113.005 82.6413L115.286 73.7881H116.569L118.896 82.6413L120.478 75.7401C120.719 74.7067 120.638 74.1785 120.466 73.834V73.7881H122.209V73.834C121.853 74.3967 121.75 74.8789 121.555 75.6827L119.607 83.9388H118.025L115.847 75.8779L113.658 83.9388H112.088L110.162 75.6827H110.151Z" fill="white"/>
    <path d="M125.246 83.9386H123.55V83.8926C123.71 83.5826 123.79 83.1922 123.79 82.1588V78.8173C123.79 77.7609 123.641 77.4623 123.401 77.359V77.3131L124.948 77.003H125.005V82.1702C125.005 83.2037 125.074 83.5826 125.246 83.9041V83.9501V83.9386ZM123.573 74.9246C123.573 74.4768 123.939 74.1094 124.386 74.1094C124.833 74.1094 125.189 74.4883 125.189 74.9246C125.189 75.361 124.833 75.7284 124.386 75.7284C123.939 75.7284 123.573 75.3725 123.573 74.9246Z" fill="white"/>
    <path d="M127.665 82.1704V78.9782C127.665 77.9218 127.516 77.6233 127.275 77.5199V77.474L128.765 76.9802H128.822V77.9448C129.625 77.3592 130.37 77.0032 131.321 77.0032C132.857 77.0032 133.671 77.8414 133.671 79.449V82.1704C133.671 83.2039 133.751 83.5828 133.911 83.9043V83.9502H132.215V83.9043C132.376 83.5943 132.456 83.2039 132.456 82.1704V79.4949C132.456 78.45 132.009 77.9907 131.057 77.9907C130.266 77.9907 129.613 78.2893 128.88 78.8978V82.1704C128.88 83.2039 128.96 83.5828 129.12 83.9043V83.9502H127.424V83.9043C127.584 83.5943 127.665 83.2039 127.665 82.1704Z" fill="white"/>
    <path d="M136.273 82.1704V78.9782C136.273 77.9218 136.124 77.6233 135.883 77.5199V77.474L137.373 76.9802H137.43V77.9448C138.233 77.3592 138.978 77.0032 139.929 77.0032C141.465 77.0032 142.279 77.8414 142.279 79.449V82.1704C142.279 83.2039 142.347 83.5828 142.519 83.9043V83.9502H140.823V83.9043C140.983 83.5943 141.064 83.2039 141.064 82.1704V79.4949C141.064 78.45 140.617 77.9907 139.665 77.9907C138.874 77.9907 138.221 78.2893 137.488 78.8978V82.1704C137.488 83.2039 137.556 83.5828 137.728 83.9043V83.9502H136.032V83.9043C136.192 83.5943 136.273 83.2039 136.273 82.1704Z" fill="white"/>
    <path d="M144.388 80.5514C144.388 78.4156 145.729 76.9688 147.7 76.9688C149.5 76.9688 150.68 78.2204 150.68 80.1495C150.68 80.3447 150.669 80.5628 150.623 80.781H145.66C145.752 82.2738 146.646 83.1809 147.987 83.1809C148.835 83.1809 149.534 82.8709 150.165 82.3427H150.222V83.4335C149.672 83.7895 148.824 84.088 147.987 84.088C145.912 84.088 144.399 82.6642 144.399 80.5514H144.388ZM145.66 79.8854H149.42C149.374 78.5534 148.755 77.8759 147.677 77.8759C146.52 77.8759 145.798 78.5878 145.672 79.8854H145.66Z" fill="white"/>
    <path d="M152.801 82.1704V78.9782C152.801 77.9218 152.652 77.6233 152.411 77.5199V77.474L153.901 76.9802H153.959V78.2548C154.486 77.5084 155.185 77.0606 155.861 77.0606C156.022 77.0606 156.171 77.095 156.343 77.1295V78.3122H156.308C156.148 78.2318 155.919 78.1974 155.701 78.1974C155.07 78.1974 154.451 78.5878 154.016 79.3227V82.1934C154.016 83.2268 154.085 83.6057 154.257 83.9273V83.9732H152.56V83.9273C152.721 83.6172 152.801 83.2268 152.801 82.1934V82.1704Z" fill="white"/>
    <path d="M73.7814 99.9686C73.9762 99.6241 74.0679 99.1074 74.0679 98.0739V91.8043C74.0679 90.8628 73.9762 90.2542 73.7814 89.9097V89.8638H79.7875V91.1269H79.7531C79.3405 90.8857 78.6986 90.7939 77.5753 90.7939H75.3288V94.2731H77.4034C78.286 94.2731 78.7444 94.2272 79.18 94.1239H79.2259V95.3525H79.18C78.7444 95.2492 78.286 95.2147 77.4034 95.2147H75.3288V99.0614H77.7587C78.9049 99.0614 79.5926 98.9466 80.097 98.671H80.1428V100.003H73.7814V99.9571V99.9686Z" fill="white"/>
    <path d="M82.2175 97.6949V94.7553C82.2175 93.9056 82.1029 93.5267 81.8851 93.3314V93.274L83.3751 93.1248H83.4324V97.6604C83.4324 98.6939 83.868 99.1647 84.8079 99.1647C85.5873 99.1647 86.2292 98.8317 86.9513 98.2575V94.7553C86.9513 93.9056 86.8367 93.5267 86.6189 93.3314V93.274L88.109 93.1248H88.1663V98.2346C88.1663 99.0843 88.2694 99.578 88.5101 99.9225V99.9685L87.2379 100.083C87.0889 99.8996 87.0201 99.601 86.9857 99.2221C86.1948 99.7847 85.4498 100.152 84.5213 100.152C82.9969 100.152 82.1945 99.3139 82.1945 97.7064L82.2175 97.6949Z" fill="white"/>
    <path d="M90.837 98.2461V95.0539C90.837 93.9975 90.688 93.6989 90.4473 93.5956V93.5497L91.9373 93.0559H91.9946V94.3305C92.5219 93.5841 93.2211 93.1363 93.8973 93.1363C94.0578 93.1363 94.2068 93.1707 94.3787 93.2052V94.3879H94.3444C94.1839 94.3075 93.9547 94.2731 93.7369 94.2731C93.1065 94.2731 92.4875 94.6635 92.0519 95.3984V98.2691C92.0519 99.3025 92.1322 99.6814 92.2927 100.003V100.049H90.5963V100.003C90.7567 99.6929 90.837 99.3025 90.837 98.2691V98.2461Z" fill="white"/>
    <path d="M95.4791 96.627C95.4791 94.5027 96.9118 93.0444 98.9635 93.0444C101.015 93.0444 102.448 94.4798 102.448 96.5811C102.448 98.6825 101.015 100.164 98.9521 100.164C96.8889 100.164 95.4791 98.7284 95.4791 96.627ZM101.199 96.627C101.199 94.9391 100.35 93.9401 98.9521 93.9401C97.5537 93.9401 96.7284 94.9046 96.7284 96.5811C96.7284 98.2576 97.5766 99.2681 98.9635 99.2681C100.35 99.2681 101.199 98.3035 101.199 96.627Z" fill="white"/>
    <path d="M104.591 101.232V95.0539C104.591 93.9975 104.442 93.6989 104.202 93.5956V93.5497L105.692 93.0559H105.749V94.009C106.299 93.4119 107.056 93.0559 107.996 93.0559C109.83 93.0559 111.274 94.4453 111.274 96.5696C111.274 98.6939 109.921 100.187 107.801 100.187C107.044 100.187 106.345 99.957 105.806 99.5551V101.243C105.806 102.277 105.887 102.667 106.047 102.977V103.023H104.351V102.977C104.511 102.667 104.591 102.277 104.591 101.243V101.232ZM105.818 95.1113V98.4758C106.253 98.9925 106.907 99.2795 107.652 99.2795C109.153 99.2795 110.036 98.292 110.036 96.627C110.036 94.962 109.211 93.9516 107.858 93.9516C106.907 93.9516 106.219 94.3879 105.818 95.1113Z" fill="white"/>
    <path d="M112.936 96.627C112.936 94.4913 114.277 93.0444 116.248 93.0444C118.048 93.0444 119.228 94.2961 119.228 96.2252C119.228 96.4204 119.217 96.6385 119.171 96.8567H114.208C114.3 98.3495 115.194 99.2566 116.535 99.2566C117.383 99.2566 118.082 98.9466 118.713 98.4183H118.77V99.5092C118.22 99.8652 117.372 100.164 116.535 100.164C114.46 100.164 112.947 98.7399 112.947 96.627H112.936ZM114.22 95.961H117.979C117.933 94.6291 117.314 93.9516 116.237 93.9516C115.079 93.9516 114.357 94.6635 114.231 95.961H114.22Z" fill="white"/>
    <path d="M38.0999 80.689L16.6544 80.6661L10.5107 77.0949L0.36676 56.6442L27.3485 0.746338L54.3417 56.6442L44.1977 77.0949L38.0999 80.689Z" stroke="white" stroke-width="0.57" stroke-miterlimit="10"/>
    <path d="M32.5982 68.3337L22.1333 68.3222L19.1417 66.5883L14.2015 56.6098L27.3485 29.3728L40.507 56.6098L35.5668 66.5883L32.5982 68.3337Z" fill="white"/>
    <path d="M105.612 81.091H105.554C105.256 81.0106 104.775 80.9761 104.225 80.9761H104.007V81.9751C104.007 82.7674 104.099 83.4564 104.259 83.709V83.7894H102.505V83.709C102.654 83.4564 102.758 82.7674 102.758 81.9751V80.9761H98.2529L98.0237 80.1149L102.391 73.6387H103.995V80.0116H104.213C104.763 80.0116 105.245 79.9542 105.543 79.8738H105.6V81.1024L105.612 81.091ZM102.746 74.7525L99.2501 79.9886H102.746V74.7525Z" fill="white"/>
  </g>
  <defs>
    <clipPath id="clip0_94_24041">
      <rect width="217" height="103" fill="white"/>
    </clipPath>
  </defs>
</svg>